<svg xmlns="http://www.w3.org/2000/svg" width="33.498" height="14.213" viewBox="0 0 33.498 14.213">
  <g id="_1487624_clients_crowd_customers_people_staff_icon" data-name="1487624_clients_crowd_customers_people_staff_icon" transform="translate(-0.03 0)">
    <path id="Path_8774" data-name="Path 8774" d="M520.614,424.067a3.137,3.137,0,1,1,3.137,3.137A3.137,3.137,0,0,1,520.614,424.067Zm3.722,4.4a6.251,6.251,0,0,0-6.505,5.966,3.389,3.389,0,0,0,.045.553c0,.148.161.141.309.141h12.3c.148,0,.289,0,.309-.141a4.173,4.173,0,0,0,.045-.643c.013-3.272-2.9-5.882-6.467-5.882Z" transform="translate(-497.306 -420.93)" fill="#2558a8"/>
    <path id="Path_8775" data-name="Path 8775" d="M507.406,435.117a5.1,5.1,0,0,0,0-.546,6.724,6.724,0,0,0-1.826-4.538,6.807,6.807,0,0,1,4.4-1.575A6.918,6.918,0,0,1,514,429.744a6.506,6.506,0,0,0-2.032,4.679v.72h-4.609Zm2.571-7.913a3.168,3.168,0,1,1,.026,0Z" transform="translate(-492.931 -420.93)" fill="#2558a8"/>
    <path id="Path_8776" data-name="Path 8776" d="M489.884,424.067a3.137,3.137,0,1,1,3.137,3.137A3.137,3.137,0,0,1,489.884,424.067Zm2.571,4.4a6.251,6.251,0,0,0-6.505,5.966,3.382,3.382,0,0,0,.045.553c0,.148.161.141.309.141h12.3c.148,0,.289,0,.309-.141a4.18,4.18,0,0,0,.045-.643c-.006-3.272-2.918-5.882-6.544-5.882Z" transform="translate(-485.92 -420.93)" fill="#2558a8"/>
  </g>
</svg>
