<svg xmlns="http://www.w3.org/2000/svg" width="17.485" height="17.904" viewBox="0 0 17.485 17.904">
  <g id="_4893647_beach_holiday_palm_tree_icon" data-name="4893647_beach_holiday_palm tree_icon" transform="translate(-6.14 -5.058)">
    <path id="Path_8966" data-name="Path 8966" d="M8.015,8.669a5.29,5.29,0,0,1,4.618-.916c.139.04.119.259-.02.3a6.476,6.476,0,0,0-4.5,4.379c-.04.139.1.259.2.159a8.419,8.419,0,0,1,5.116-1.831A17.074,17.074,0,0,0,11.857,19a.183.183,0,0,0,.259.159,15.666,15.666,0,0,1,2.528-.816.173.173,0,0,0,.139-.2,16.363,16.363,0,0,1,.279-7.086A8.16,8.16,0,0,1,19.421,14.7a.143.143,0,0,0,.259-.06,5.4,5.4,0,0,0-2.07-5.653.154.154,0,0,1,.1-.279,5.792,5.792,0,0,1,3.941,2.05c.08.1.239.02.239-.119.06-1.772-1.811-6.27-6.45-4.14a.123.123,0,0,1-.139-.02C14.763,6,10.5,2.578,7.836,8.47,7.776,8.609,7.9,8.749,8.015,8.669Z" transform="translate(-1.346 0)" fill="#2558a8"/>
    <path id="Path_8967" data-name="Path 8967" d="M6.371,77.219h17a.252.252,0,0,0,.219-.378c-.119-.179-.239-.358-.358-.518-.04-.06-.08-.1-.119-.159-.08-.119-.179-.219-.259-.338a1.138,1.138,0,0,0-.139-.159,1.719,1.719,0,0,0-.259-.279c-.04-.06-.1-.1-.139-.159a3.677,3.677,0,0,1-.279-.279l-.119-.119-.418-.358-.02-.02c-.139-.1-.279-.2-.4-.3a.416.416,0,0,1-.119-.08c-.08-.04-.139-.1-.219-.139a.435.435,0,0,1-.1-.06c-.06-.04-.139-.08-.2-.119-.06-.02-.1-.06-.159-.08a.435.435,0,0,1-.1-.06,1.067,1.067,0,0,0-.219-.1,1835.251,1835.251,0,0,0-.279-.119c-.08-.02-.139-.06-.219-.08a.283.283,0,0,0-.119-.04,1.37,1.37,0,0,1-.159-.06l-.179-.06a1.865,1.865,0,0,0-.318-.08.589.589,0,0,0-.2-.04c-.02,0-.04-.02-.06-.02-.04,0-.06-.02-.1-.02a.339.339,0,0,0-.139-.02c-.1-.02-.179-.04-.279-.06a1.537,1.537,0,0,0-.3-.04,1.051,1.051,0,0,0-.259-.02,1.507,1.507,0,0,0-.3-.02,1.224,1.224,0,0,1-.279-.02h-.9V72.8a12.7,12.7,0,0,0-1.971.259,16.38,16.38,0,0,0-2.986.936c-.119.06-.259.1-.378.159-.139.06-.259.119-.4.179l-.358.179-.358.179a12.119,12.119,0,0,0-1.135.637,16.192,16.192,0,0,0-1.951,1.334.238.238,0,0,0-.08.08A.254.254,0,0,0,6.371,77.219Z" transform="translate(0 -54.258)" fill="#2558a8"/>
  </g>
</svg>
