<svg xmlns="http://www.w3.org/2000/svg" width="21.346" height="21.346" viewBox="0 0 21.346 21.346">
  <path id="_553673_circle_help_i_info_information_icon" data-name="553673_circle_help_i_info_information_icon" d="M12.673,2A10.673,10.673,0,1,0,23.346,12.673,10.673,10.673,0,0,0,12.673,2Zm.781,4.318a1.329,1.329,0,1,1-1.349,1.329A1.332,1.332,0,0,1,13.454,6.318Zm1.63,10.634c-.606,1.64-1.523,2.076-2.557,2.076a1.772,1.772,0,0,1-1.979-1.941,4.4,4.4,0,0,1,.116-.97l.888-3.609a.381.381,0,0,0-.388-.495h-.548a.37.37,0,0,1-.378-.49l.218-.839a.691.691,0,0,1,.636-.49h2.751a.378.378,0,0,1,.383.495L12.862,16.1a3.906,3.906,0,0,0-.141.912c0,.374.179.558.475.558s.621-.16.98-.956a.5.5,0,0,1,.626-.3A.49.49,0,0,1,15.084,16.952Z" transform="translate(-2 -2)" fill="#2558a8"/>
</svg>
