<svg xmlns="http://www.w3.org/2000/svg" width="120.36" height="42.21" viewBox="0 0 120.36 42.21">
  <g id="Logo" transform="translate(-128.001 -65)">
    <g id="KanTime-Logo-Tagline" transform="translate(108.201 -40.6)">
      <g id="Group_10218" data-name="Group 10218" transform="translate(19.8 119.045)">
        <path id="Path_8439" data-name="Path 8439" d="M53.787,268.956a4.593,4.593,0,0,0-3.34,1.39v-1.229H47.191v13.378h1.517l.017-.008a1.8,1.8,0,0,0,1.8-1.8h0v-6.282a2.235,2.235,0,1,1,4.451,0v8.088h1.517l.017-.008a1.8,1.8,0,0,0,1.8-1.8v-6.748a4.949,4.949,0,0,0-1.356-3.8,4.36,4.36,0,0,0-3.162-1.187m14.59,13.53H66.859V269.109H70.2V280.68a1.8,1.8,0,0,1-1.8,1.8Zm-5.951,0H60.908V267.54H54.965V264.2H70.191v3.34H64.248v13.14a1.8,1.8,0,0,1-1.8,1.8ZM34.314,264.208H30.287l-6.587,8.91,6.918,9.368H34.7l-7.155-9.368Zm-14.514,0v18.278h1.738l.017-.008a1.8,1.8,0,0,0,1.8-1.8l.008-.059V264.208Zm21.932,13.352a2.176,2.176,0,0,1-.492,1.7,2.633,2.633,0,0,1-2.1.644c-1.314,0-1.924-.619-1.924-1.543,0-.949.67-1.517,1.874-1.517h2.645v.721Zm-2.357-8.6c-2.238,0-3.518.407-4.824,1.848l2.128,2.077a2.867,2.867,0,0,1,2.569-1.1c1.772,0,2.492.644,2.492,2.1v.67H38.578c-3.1,0-4.569,1.746-4.569,3.874a3.593,3.593,0,0,0,1.1,2.7c1.161,1.161,2.331,1.475,4.425,1.475s3.264-.314,4.425-1.475a5.443,5.443,0,0,0,1.1-3.433v-4.018c.008-3.128-1.941-4.722-5.688-4.722m60.386,13.657c-3.747,0-5.7-1.594-5.7-4.722v-4.027a5.443,5.443,0,0,1,1.1-3.433c1.161-1.161,2.331-1.475,4.425-1.475s3.264.314,4.425,1.475a3.575,3.575,0,0,1,1.1,2.7c0,2.128-1.467,3.874-4.569,3.874H97.4v.67c0,1.467.721,2.1,2.492,2.1a2.876,2.876,0,0,0,2.569-1.1l2.128,2.077c-1.306,1.45-2.586,1.857-4.824,1.857M100,271.677a2.623,2.623,0,0,0-2.1.644,2.209,2.209,0,0,0-.492,1.7v.721h2.645c1.2,0,1.874-.568,1.874-1.517,0-.924-.619-1.543-1.924-1.543m-9.851,10.809H88.638V274.4a2.228,2.228,0,1,0-4.442-.076v6.324l-.008.034a1.8,1.8,0,0,1-1.8,1.8l-.017.008H80.856V274.4a2.151,2.151,0,0,0-2.2-2.442,2.174,2.174,0,0,0-2.238,2.442v6.324a1.8,1.8,0,0,1-1.8,1.755l-.017.008H73.073V269.109h3.255v1.229a4.673,4.673,0,0,1,3.34-1.382,4.149,4.149,0,0,1,3.544,1.7,5.1,5.1,0,0,1,4-1.7,4.7,4.7,0,0,1,3.289,1.178,5.053,5.053,0,0,1,1.467,3.8v6.706l-.008.034a1.8,1.8,0,0,1-1.8,1.8Z" transform="translate(-19.8 -264.2)" fill="#00396b"/>
      </g>
      <path id="Path_8440" data-name="Path 8440" d="M957.584,239.265h-1.356V237.9h-.771v1.365H954.1v.771h1.356v1.356h.771v-1.356h1.356Z" transform="translate(-855.094 -121.084)" fill="#2cb34a"/>
      <path id="Path_8441" data-name="Path 8441" d="M650.218,177.672h-3.281V174.4h-1.865v3.272H641.8v1.865h3.272v3.272h1.865v-3.272h3.281Z" transform="translate(-569.269 -62.967)" fill="#fdb714"/>
      <path id="Path_8442" data-name="Path 8442" d="M796.834,141.706H794.52V139.4h-1.314v2.306H790.9v1.314h2.306v2.314h1.314V143.02h2.314Z" transform="translate(-705.729 -30.935)" fill="#c8531f"/>
      <path id="Path_8443" data-name="Path 8443" d="M868.314,170.6h-3v-3H863.6v3h-3v1.7h3v3h1.713v-3h3Z" transform="translate(-769.52 -56.744)" fill="#3ca5d5"/>
      <path id="Path_8444" data-name="Path 8444" d="M984.329,105.6v2.23H982.1v1.263h2.23v2.23H985.6v-2.23h2.221V107.83H985.6V105.6Z" transform="translate(-880.72)" fill="#c7c8ca"/>
      <g id="Group_10219" data-name="Group 10219" transform="translate(47.488 140.926)">
        <path id="Path_8445" data-name="Path 8445" d="M349.647,530.291a.12.12,0,0,1-.017.051.078.078,0,0,1-.051.034.262.262,0,0,1-.093.017.647.647,0,0,1-.136.008.693.693,0,0,1-.144-.008c-.034-.008-.068-.008-.093-.017a.078.078,0,0,1-.051-.034.121.121,0,0,1-.017-.051v-1.984H347.01v1.984a.12.12,0,0,1-.017.051.078.078,0,0,1-.051.034.263.263,0,0,1-.093.017.692.692,0,0,1-.144.008.735.735,0,0,1-.144-.008c-.042-.008-.068-.008-.093-.017a.078.078,0,0,1-.051-.034.121.121,0,0,1-.017-.051V526.01a.12.12,0,0,1,.017-.051.078.078,0,0,1,.051-.034.262.262,0,0,1,.093-.017,1.237,1.237,0,0,1,.288,0c.034.009.068.009.093.017a.078.078,0,0,1,.051.034.12.12,0,0,1,.017.051V527.8h2.035V526.01a.12.12,0,0,1,.017-.051.078.078,0,0,1,.051-.034.262.262,0,0,1,.093-.017.692.692,0,0,1,.144-.008.606.606,0,0,1,.136.008c.034.009.068.009.093.017a.078.078,0,0,1,.051.034.12.12,0,0,1,.017.051Z" transform="translate(-346.4 -525.595)" fill="#00396b"/>
        <path id="Path_8446" data-name="Path 8446" d="M396.126,541.1a2.091,2.091,0,0,0-.051-.475,1.249,1.249,0,0,0-.153-.39.807.807,0,0,0-.288-.271.96.96,0,0,0-.458-.1,1.023,1.023,0,0,0-.441.093.876.876,0,0,0-.305.254,1.271,1.271,0,0,0-.178.39,2.184,2.184,0,0,0-.008.975,1.08,1.08,0,0,0,.161.39.742.742,0,0,0,.3.263.937.937,0,0,0,.458.1.858.858,0,0,0,.432-.093.807.807,0,0,0,.305-.254,1.272,1.272,0,0,0,.178-.39,2.19,2.19,0,0,0,.051-.492m.585-.043a2.258,2.258,0,0,1-.1.7,1.637,1.637,0,0,1-.3.551,1.467,1.467,0,0,1-.5.365,1.754,1.754,0,0,1-.7.127,1.821,1.821,0,0,1-.67-.11,1.263,1.263,0,0,1-.475-.331,1.362,1.362,0,0,1-.28-.526,2.526,2.526,0,0,1-.093-.7,2.258,2.258,0,0,1,.1-.7,1.5,1.5,0,0,1,.3-.551,1.387,1.387,0,0,1,.492-.356,1.754,1.754,0,0,1,.7-.127,1.821,1.821,0,0,1,.67.11,1.262,1.262,0,0,1,.475.331,1.5,1.5,0,0,1,.288.526,2.225,2.225,0,0,1,.093.7" transform="translate(-389.599 -537.95)" fill="#00396b"/>
        <path id="Path_8447" data-name="Path 8447" d="M438.705,540a.165.165,0,0,1-.008.059.449.449,0,0,1-.025.085l-.916,2.95a.137.137,0,0,1-.034.059.139.139,0,0,1-.059.034.333.333,0,0,1-.11.017c-.042,0-.1.008-.17.008a1.1,1.1,0,0,1-.178-.008c-.051-.009-.085-.009-.119-.017a.184.184,0,0,1-.059-.034.137.137,0,0,1-.034-.059l-.653-2.255-.008-.034-.008.034-.6,2.255a.137.137,0,0,1-.034.059.129.129,0,0,1-.068.034.444.444,0,0,1-.119.017c-.051,0-.1.008-.178.008a1.154,1.154,0,0,1-.178-.008c-.042-.009-.085-.009-.11-.017a.184.184,0,0,1-.059-.034.136.136,0,0,1-.034-.059l-.907-2.95c-.008-.034-.017-.059-.025-.085A.165.165,0,0,1,434,540a.12.12,0,0,1,.017-.051.13.13,0,0,1,.051-.034.249.249,0,0,1,.085-.017h.136a.734.734,0,0,1,.153.008.263.263,0,0,1,.093.017.085.085,0,0,1,.042.034l.025.051.746,2.56.008.034.009-.034.687-2.56c.008-.017.008-.034.025-.051a.085.085,0,0,1,.042-.034.214.214,0,0,1,.085-.017c.034,0,.085-.008.136-.008a.6.6,0,0,1,.136.008.252.252,0,0,1,.085.017.085.085,0,0,1,.042.034.12.12,0,0,1,.017.051l.746,2.569.008.034v-.034l.738-2.56c.009-.017.009-.034.025-.051a.078.078,0,0,1,.051-.034.262.262,0,0,1,.093-.017c.034,0,.085-.009.144-.009h.136a.17.17,0,0,1,.076.017.085.085,0,0,1,.042.034c.017,0,.025.017.025.042" transform="translate(-426.574 -538.408)" fill="#00396b"/>
        <path id="Path_8448" data-name="Path 8448" d="M514.487,525.545a2.788,2.788,0,0,0-.026-.381.956.956,0,0,0-.1-.322.713.713,0,0,0-.187-.229.464.464,0,0,0-.288-.085.587.587,0,0,0-.17.025.529.529,0,0,0-.169.085,1.428,1.428,0,0,0-.178.153,1.935,1.935,0,0,0-.2.229v1.017a1.742,1.742,0,0,0,.348.356.557.557,0,0,0,.348.119.464.464,0,0,0,.288-.085.808.808,0,0,0,.2-.22.918.918,0,0,0,.11-.314,2.311,2.311,0,0,0,.026-.348m.907-.059a2.831,2.831,0,0,1-.093.737,1.554,1.554,0,0,1-.263.559,1.166,1.166,0,0,1-.975.483,1.524,1.524,0,0,1-.288-.025.83.83,0,0,1-.254-.093,1.117,1.117,0,0,1-.237-.17,3.149,3.149,0,0,1-.246-.237v.331a.124.124,0,0,1-.017.059.108.108,0,0,1-.059.042.9.9,0,0,1-.119.025,1.885,1.885,0,0,1-.356,0,.3.3,0,0,1-.11-.025.107.107,0,0,1-.059-.042.123.123,0,0,1-.017-.059v-4.536a.123.123,0,0,1,.017-.059.133.133,0,0,1,.068-.042.481.481,0,0,1,.136-.025,1.5,1.5,0,0,1,.212-.008,1.569,1.569,0,0,1,.212.008,1.35,1.35,0,0,1,.136.025.1.1,0,0,1,.068.042.081.081,0,0,1,.017.059v1.7a1.77,1.77,0,0,1,.237-.2.95.95,0,0,1,.237-.136,1.279,1.279,0,0,1,.237-.076,1.315,1.315,0,0,1,.263-.025,1.1,1.1,0,0,1,.576.136,1.147,1.147,0,0,1,.39.365,1.652,1.652,0,0,1,.22.542,3.2,3.2,0,0,1,.068.653" transform="translate(-498.236 -522.392)" fill="#00396b"/>
        <path id="Path_8449" data-name="Path 8449" d="M555.47,540.107a.911.911,0,0,0-.144-.576.569.569,0,0,0-.483-.212.628.628,0,0,0-.288.059.5.5,0,0,0-.2.17.956.956,0,0,0-.127.246,1.65,1.65,0,0,0-.051.305l1.3.008Zm.839.246a.361.361,0,0,1-.068.237.256.256,0,0,1-.195.076h-1.874a1.519,1.519,0,0,0,.042.356.823.823,0,0,0,.144.271.567.567,0,0,0,.263.17,1.061,1.061,0,0,0,.382.059,1.836,1.836,0,0,0,.4-.034,1.883,1.883,0,0,0,.3-.076,1.946,1.946,0,0,0,.212-.076.346.346,0,0,1,.136-.034c.017,0,.034.008.051.008a.084.084,0,0,1,.034.042.213.213,0,0,1,.017.085c0,.034.008.085.008.144v.127c0,.034-.008.068-.008.093a.535.535,0,0,1-.017.059c-.008.017-.025.034-.034.051a.92.92,0,0,1-.119.068c-.068.025-.153.051-.254.085a2.986,2.986,0,0,1-.356.068,3.431,3.431,0,0,1-.424.034,2.311,2.311,0,0,1-.721-.1,1.217,1.217,0,0,1-.822-.848,2.5,2.5,0,0,1-.1-.755,2.246,2.246,0,0,1,.11-.738,1.5,1.5,0,0,1,.314-.56,1.338,1.338,0,0,1,.492-.348,1.8,1.8,0,0,1,.661-.119,1.744,1.744,0,0,1,.661.11,1.16,1.16,0,0,1,.449.314,1.226,1.226,0,0,1,.254.475,1.952,1.952,0,0,1,.085.6v.153Z" transform="translate(-535.76 -537.31)" fill="#00396b"/>
        <path id="Path_8450" data-name="Path 8450" d="M594.983,531.883a1.4,1.4,0,0,1-.017.229.222.222,0,0,1-.051.11.253.253,0,0,1-.093.059.635.635,0,0,1-.136.042.946.946,0,0,1-.178.034,1.372,1.372,0,0,1-.186.008,1.391,1.391,0,0,1-.449-.068.72.72,0,0,1-.314-.2.878.878,0,0,1-.187-.339,1.7,1.7,0,0,1-.059-.492V529.7H591.99v1.45a.757.757,0,0,0,.076.381.3.3,0,0,0,.28.127.645.645,0,0,0,.127-.008l.1-.025.076-.025a.107.107,0,0,1,.051-.008c.017,0,.025.008.042.008a.072.072,0,0,1,.025.051.318.318,0,0,1,.017.1.875.875,0,0,1,.008.161.734.734,0,0,1-.008.153.3.3,0,0,1-.017.093.554.554,0,0,1-.017.059.226.226,0,0,1-.043.051.371.371,0,0,1-.085.051.635.635,0,0,1-.136.042,1,1,0,0,1-.178.025c-.068,0-.127.008-.2.008a1.43,1.43,0,0,1-.449-.068.721.721,0,0,1-.314-.2.878.878,0,0,1-.187-.339,1.7,1.7,0,0,1-.059-.492V529.7h-.373c-.042,0-.076-.025-.1-.085a.7.7,0,0,1-.034-.271,1.019,1.019,0,0,1,.009-.17,1.107,1.107,0,0,1,.025-.11.152.152,0,0,1,.042-.059.123.123,0,0,1,.059-.017h.365V528.3a.123.123,0,0,1,.017-.059.155.155,0,0,1,.068-.051.486.486,0,0,1,.136-.025,2.632,2.632,0,0,1,.424,0,1.355,1.355,0,0,1,.136.025.088.088,0,0,1,.068.051.08.08,0,0,1,.017.059v.687h1.322v-.848a.123.123,0,0,1,.017-.059.1.1,0,0,1,.068-.042,1.306,1.306,0,0,1,.136-.025,2.651,2.651,0,0,1,.424,0,1.3,1.3,0,0,1,.136.025.1.1,0,0,1,.068.042.08.08,0,0,1,.017.059v.848h.67a.123.123,0,0,1,.059.017.108.108,0,0,1,.042.059.3.3,0,0,1,.025.11.976.976,0,0,1,.008.17.7.7,0,0,1-.034.271c-.025.051-.059.085-.1.085h-.67v1.45a.756.756,0,0,0,.076.381.305.305,0,0,0,.288.127.647.647,0,0,0,.127-.008c.034-.008.068-.017.093-.025l.076-.025a.144.144,0,0,1,.059-.008c.017,0,.025.008.034.008a.139.139,0,0,1,.025.051.316.316,0,0,1,.017.1c.034.017.034.076.034.136" transform="translate(-569.898 -527.517)" fill="#00396b"/>
        <path id="Path_8451" data-name="Path 8451" d="M647.262,540.107a.911.911,0,0,0-.144-.576.569.569,0,0,0-.483-.212.628.628,0,0,0-.288.059.5.5,0,0,0-.2.17.956.956,0,0,0-.127.246,1.625,1.625,0,0,0-.051.305l1.3.008Zm.839.246a.36.36,0,0,1-.068.237.256.256,0,0,1-.195.076h-1.874a1.519,1.519,0,0,0,.042.356.708.708,0,0,0,.153.271.568.568,0,0,0,.263.17,1.06,1.06,0,0,0,.381.059,1.837,1.837,0,0,0,.4-.034,1.886,1.886,0,0,0,.3-.076,1.957,1.957,0,0,0,.212-.076.346.346,0,0,1,.136-.034c.017,0,.034.008.051.008a.085.085,0,0,1,.034.042.213.213,0,0,1,.017.085c0,.034.008.085.008.144v.127c0,.034-.008.068-.008.093a.535.535,0,0,1-.017.059c-.009.017-.025.034-.034.051a.9.9,0,0,1-.119.068c-.068.025-.152.051-.254.085a2.984,2.984,0,0,1-.356.068,3.43,3.43,0,0,1-.424.034,2.309,2.309,0,0,1-.72-.1,1.326,1.326,0,0,1-.517-.314,1.265,1.265,0,0,1-.305-.534,2.5,2.5,0,0,1-.1-.755,2.244,2.244,0,0,1,.11-.738,1.5,1.5,0,0,1,.314-.56,1.335,1.335,0,0,1,.492-.348,1.8,1.8,0,0,1,.661-.119,1.744,1.744,0,0,1,.661.11,1.159,1.159,0,0,1,.449.314,1.226,1.226,0,0,1,.254.475,1.95,1.95,0,0,1,.085.6v.153Z" transform="translate(-619.777 -537.31)" fill="#00396b"/>
        <path id="Path_8452" data-name="Path 8452" d="M689.367,539.283a1.377,1.377,0,0,1-.008.2c-.008.051-.008.093-.017.127s-.017.051-.034.059a.122.122,0,0,1-.059.017.144.144,0,0,1-.059-.008l-.076-.025c-.026-.008-.059-.017-.093-.025a.451.451,0,0,0-.11-.008.3.3,0,0,0-.144.034.494.494,0,0,0-.153.093.97.97,0,0,0-.161.161,1.655,1.655,0,0,0-.178.254v1.916a.077.077,0,0,1-.025.059.134.134,0,0,1-.068.042,1.34,1.34,0,0,1-.136.025,2.67,2.67,0,0,1-.424,0,1.348,1.348,0,0,1-.136-.025.105.105,0,0,1-.068-.042.072.072,0,0,1-.017-.059V539a.122.122,0,0,1,.017-.059.109.109,0,0,1,.059-.042c.034-.008.068-.017.119-.025a1.137,1.137,0,0,1,.178-.008,1.2,1.2,0,0,1,.186.008.73.73,0,0,1,.11.025.153.153,0,0,1,.059.042.123.123,0,0,1,.017.059v.382a2.274,2.274,0,0,1,.229-.288.954.954,0,0,1,.2-.178.682.682,0,0,1,.2-.093.771.771,0,0,1,.195-.025.348.348,0,0,1,.093.008.593.593,0,0,1,.11.017c.034.009.068.017.093.026a.178.178,0,0,1,.059.034c.009.008.025.025.025.034a.539.539,0,0,1,.017.059.382.382,0,0,1,.008.11,1.2,1.2,0,0,0-.008.2" transform="translate(-658.491 -537.401)" fill="#00396b"/>
        <path id="Path_8453" data-name="Path 8453" d="M736.453,527.005a.065.065,0,0,1-.017.042.184.184,0,0,1-.042.034.212.212,0,0,1-.085.017.638.638,0,0,1-.136.009.726.726,0,0,1-.144-.009.7.7,0,0,1-.085-.017.085.085,0,0,1-.042-.034.065.065,0,0,1-.017-.042v-1.814a1.81,1.81,0,0,0-.042-.424.842.842,0,0,0-.119-.28.518.518,0,0,0-.2-.178.628.628,0,0,0-.288-.059.7.7,0,0,0-.424.153,2.233,2.233,0,0,0-.449.449v2.17a.065.065,0,0,1-.017.042.18.18,0,0,1-.042.034.211.211,0,0,1-.085.017.687.687,0,0,1-.144.008.6.6,0,0,1-.136-.008.718.718,0,0,1-.085-.017.059.059,0,0,1-.042-.034.063.063,0,0,1-.008-.042V522.41a.108.108,0,0,1,.008-.051.085.085,0,0,1,.042-.034.25.25,0,0,1,.085-.017.647.647,0,0,1,.136-.008.83.83,0,0,1,.229.025.085.085,0,0,1,.042.034.121.121,0,0,1,.017.051v1.857a1.931,1.931,0,0,1,.492-.382,1.1,1.1,0,0,1,.5-.127,1.234,1.234,0,0,1,.526.1.85.85,0,0,1,.339.28,1.093,1.093,0,0,1,.187.415,2.72,2.72,0,0,1,.059.568l-.009,1.882Z" transform="translate(-700.958 -522.3)" fill="#00396b"/>
        <path id="Path_8454" data-name="Path 8454" d="M775.092,541.148h-.483a1.939,1.939,0,0,0-.407.042.819.819,0,0,0-.288.119.445.445,0,0,0-.17.187.592.592,0,0,0-.051.254.492.492,0,0,0,.153.381.618.618,0,0,0,.432.144.782.782,0,0,0,.415-.11,1.794,1.794,0,0,0,.4-.348Zm.56,1.416a.066.066,0,0,1-.025.059.159.159,0,0,1-.076.034.651.651,0,0,1-.144.008.693.693,0,0,1-.144-.008.16.16,0,0,1-.076-.034.077.077,0,0,1-.025-.059v-.314a1.608,1.608,0,0,1-.458.339,1.253,1.253,0,0,1-.526.119,1.417,1.417,0,0,1-.441-.068.878.878,0,0,1-.339-.187.779.779,0,0,1-.22-.3,1.012,1.012,0,0,1-.076-.4.873.873,0,0,1,.11-.458.853.853,0,0,1,.305-.322,1.53,1.53,0,0,1,.492-.195,3.022,3.022,0,0,1,.653-.068h.424v-.237a1.141,1.141,0,0,0-.034-.314.586.586,0,0,0-.119-.229.487.487,0,0,0-.22-.136.978.978,0,0,0-.331-.042,1.342,1.342,0,0,0-.382.051,1.979,1.979,0,0,0-.3.11c-.085.042-.153.076-.212.11a.316.316,0,0,1-.127.051.119.119,0,0,1-.051-.017.085.085,0,0,1-.034-.042.584.584,0,0,1-.026-.068.315.315,0,0,1-.009-.093.6.6,0,0,1,.009-.136.161.161,0,0,1,.059-.093.526.526,0,0,1,.161-.1,1.535,1.535,0,0,1,.263-.11,2.976,2.976,0,0,1,.322-.085,1.687,1.687,0,0,1,.356-.034,1.841,1.841,0,0,1,.568.076,1.053,1.053,0,0,1,.382.22.92.92,0,0,1,.212.365,1.8,1.8,0,0,1,.068.509v2.094Z" transform="translate(-736.926 -537.859)" fill="#00396b"/>
        <path id="Path_8455" data-name="Path 8455" d="M816.347,540.846a2.64,2.64,0,0,0-.034-.458,1.461,1.461,0,0,0-.127-.4.763.763,0,0,0-.237-.28.645.645,0,0,0-.373-.1.662.662,0,0,0-.22.034,1.668,1.668,0,0,0-.22.1,1.474,1.474,0,0,0-.229.186,1.744,1.744,0,0,0-.254.288v1.238a2.409,2.409,0,0,0,.449.441.751.751,0,0,0,.441.152.684.684,0,0,0,.373-.1.814.814,0,0,0,.254-.28,1.768,1.768,0,0,0,.144-.39,2.474,2.474,0,0,0,.034-.432m.593-.068a2.733,2.733,0,0,1-.085.729,1.66,1.66,0,0,1-.254.551,1.129,1.129,0,0,1-.424.348,1.254,1.254,0,0,1-.577.119,1.181,1.181,0,0,1-.254-.025,1.252,1.252,0,0,1-.229-.085.931.931,0,0,1-.22-.153,2.487,2.487,0,0,1-.237-.212v2.4a.121.121,0,0,1-.017.051.086.086,0,0,1-.042.034.214.214,0,0,1-.085.017.693.693,0,0,1-.144.008.607.607,0,0,1-.136-.008.792.792,0,0,1-.085-.017.06.06,0,0,1-.042-.034.108.108,0,0,1-.008-.051v-5.188a.108.108,0,0,1,.008-.051.091.091,0,0,1,.042-.034.2.2,0,0,1,.076-.017c.034,0,.068-.008.119-.008a.485.485,0,0,1,.119.008.168.168,0,0,1,.076.017.084.084,0,0,1,.042.034.092.092,0,0,1,.008.051v.415c.093-.093.187-.178.271-.254a2.4,2.4,0,0,1,.263-.178,1.072,1.072,0,0,1,.271-.11,1.14,1.14,0,0,1,.3-.034,1.116,1.116,0,0,1,.576.136,1.049,1.049,0,0,1,.39.356,1.727,1.727,0,0,1,.22.526,4.274,4.274,0,0,1,.059.661" transform="translate(-774.45 -537.676)" fill="#00396b"/>
        <path id="Path_8456" data-name="Path 8456" d="M858.455,540.846a2.64,2.64,0,0,0-.034-.458,1.464,1.464,0,0,0-.127-.4.762.762,0,0,0-.237-.28.645.645,0,0,0-.373-.1.662.662,0,0,0-.22.034,1.656,1.656,0,0,0-.22.1,1.468,1.468,0,0,0-.229.186,1.744,1.744,0,0,0-.254.288v1.238a2.407,2.407,0,0,0,.449.441.751.751,0,0,0,.441.152.684.684,0,0,0,.373-.1.814.814,0,0,0,.254-.28,1.765,1.765,0,0,0,.144-.39,3.693,3.693,0,0,0,.034-.432m.585-.068a2.735,2.735,0,0,1-.085.729,1.657,1.657,0,0,1-.254.551,1.129,1.129,0,0,1-.424.348,1.254,1.254,0,0,1-.577.119,1.182,1.182,0,0,1-.254-.025,1.257,1.257,0,0,1-.229-.085.935.935,0,0,1-.22-.153,2.5,2.5,0,0,1-.237-.212v2.4a.121.121,0,0,1-.017.051.085.085,0,0,1-.042.034.215.215,0,0,1-.085.017.693.693,0,0,1-.144.008.606.606,0,0,1-.136-.008.773.773,0,0,1-.085-.017.06.06,0,0,1-.042-.034.109.109,0,0,1-.008-.051v-5.188a.109.109,0,0,1,.008-.051.092.092,0,0,1,.042-.034.2.2,0,0,1,.076-.017c.034,0,.068-.008.119-.008a.483.483,0,0,1,.119.008.168.168,0,0,1,.076.017.085.085,0,0,1,.042.034.092.092,0,0,1,.008.051v.415c.093-.093.186-.178.271-.254a2.389,2.389,0,0,1,.263-.178,1.072,1.072,0,0,1,.271-.11,1.14,1.14,0,0,1,.3-.034,1.117,1.117,0,0,1,.577.136,1.049,1.049,0,0,1,.39.356,1.719,1.719,0,0,1,.22.526,3.425,3.425,0,0,1,.059.661" transform="translate(-812.981 -537.676)" fill="#00396b"/>
        <path id="Path_8457" data-name="Path 8457" d="M898.263,540.707a1.011,1.011,0,0,0-.2-.7.759.759,0,0,0-.627-.254.864.864,0,0,0-.373.076.738.738,0,0,0-.271.212,1.056,1.056,0,0,0-.17.305,1.322,1.322,0,0,0-.068.365Zm.568.17a.258.258,0,0,1-.068.2.243.243,0,0,1-.153.059h-2.043a1.963,1.963,0,0,0,.051.466.99.99,0,0,0,.17.356.772.772,0,0,0,.314.229,1.3,1.3,0,0,0,.475.076,1.938,1.938,0,0,0,.4-.034,2.626,2.626,0,0,0,.509-.17.285.285,0,0,1,.127-.034.064.064,0,0,1,.042.008c.008.008.025.017.034.034s.008.042.017.068.008.059.008.1v.076c0,.025-.008.042-.008.059a.065.065,0,0,1-.017.042.148.148,0,0,1-.034.042.517.517,0,0,1-.11.059,1.85,1.85,0,0,1-.237.085c-.1.025-.212.051-.339.076a2.168,2.168,0,0,1-.415.034,1.821,1.821,0,0,1-.67-.11,1.2,1.2,0,0,1-.483-.314,1.442,1.442,0,0,1-.3-.526,2.426,2.426,0,0,1-.1-.738,2.389,2.389,0,0,1,.1-.721,1.6,1.6,0,0,1,.3-.542,1.28,1.28,0,0,1,.475-.339,1.609,1.609,0,0,1,.619-.119,1.491,1.491,0,0,1,.619.119,1.229,1.229,0,0,1,.424.314,1.3,1.3,0,0,1,.246.466,2.047,2.047,0,0,1,.076.568v.11Z" transform="translate(-849.407 -537.859)" fill="#00396b"/>
        <path id="Path_8458" data-name="Path 8458" d="M940.853,542.747a.065.065,0,0,1-.017.042.187.187,0,0,1-.042.034.213.213,0,0,1-.085.017.653.653,0,0,1-.136.008.824.824,0,0,1-.229-.025.085.085,0,0,1-.042-.034.064.064,0,0,1-.017-.042v-1.814a1.815,1.815,0,0,0-.042-.424.845.845,0,0,0-.119-.28.517.517,0,0,0-.2-.178.625.625,0,0,0-.288-.059.7.7,0,0,0-.424.153,2.234,2.234,0,0,0-.449.449v2.17a.064.064,0,0,1-.017.042.182.182,0,0,1-.042.034.215.215,0,0,1-.085.017.692.692,0,0,1-.144.008.607.607,0,0,1-.136-.008.773.773,0,0,1-.085-.017.06.06,0,0,1-.042-.034.063.063,0,0,1-.008-.042v-3.1a.108.108,0,0,1,.008-.051.092.092,0,0,1,.042-.034.2.2,0,0,1,.076-.017c.034,0,.076-.008.127-.008a.564.564,0,0,1,.127.008.17.17,0,0,1,.076.017.181.181,0,0,1,.042.034c.008.008.008.025.008.051v.407a1.969,1.969,0,0,1,.526-.432,1.079,1.079,0,0,1,.526-.136,1.238,1.238,0,0,1,.526.1.851.851,0,0,1,.339.28,1.094,1.094,0,0,1,.187.415,2.72,2.72,0,0,1,.059.568v1.882Z" transform="translate(-888.029 -538.042)" fill="#00396b"/>
        <path id="Path_8459" data-name="Path 8459" d="M979.4,541.716a.972.972,0,0,1-.085.424.9.9,0,0,1-.246.314,1.126,1.126,0,0,1-.39.2,1.813,1.813,0,0,1-.492.068,1.885,1.885,0,0,1-.314-.025,2.122,2.122,0,0,1-.271-.068,1.136,1.136,0,0,1-.2-.085.36.36,0,0,1-.119-.076.349.349,0,0,1-.059-.093.472.472,0,0,1-.017-.169.411.411,0,0,1,.009-.11c.008-.034.008-.051.017-.076a.186.186,0,0,1,.025-.042.063.063,0,0,1,.042-.009.305.305,0,0,1,.11.042c.051.025.11.068.187.1s.161.068.254.1a1.056,1.056,0,0,0,.339.051.858.858,0,0,0,.263-.034.56.56,0,0,0,.2-.093.466.466,0,0,0,.136-.153.447.447,0,0,0,.051-.22.378.378,0,0,0-.068-.22.664.664,0,0,0-.178-.161,2.2,2.2,0,0,0-.246-.119c-.093-.034-.187-.076-.288-.11a2.979,2.979,0,0,1-.288-.136,1.365,1.365,0,0,1-.254-.178.689.689,0,0,1-.178-.254.92.92,0,0,1-.068-.356.976.976,0,0,1,.068-.348.91.91,0,0,1,.212-.3,1.034,1.034,0,0,1,.356-.2,1.46,1.46,0,0,1,.492-.076,2.209,2.209,0,0,1,.246.017c.085.017.161.034.22.051a.637.637,0,0,1,.17.068,1.118,1.118,0,0,1,.11.059.145.145,0,0,1,.051.051c.008.017.017.026.017.042s.008.034.008.059.009.059.009.093a.346.346,0,0,1-.009.1.158.158,0,0,1-.017.068.084.084,0,0,1-.034.042.05.05,0,0,1-.034.009.207.207,0,0,1-.093-.034c-.042-.025-.093-.051-.153-.085a2.02,2.02,0,0,0-.22-.085.991.991,0,0,0-.288-.034.8.8,0,0,0-.254.034.439.439,0,0,0-.178.093.363.363,0,0,0-.11.144.443.443,0,0,0-.034.178.405.405,0,0,0,.068.229.825.825,0,0,0,.178.161q.114.064.254.127c.093.034.187.076.288.11s.2.085.288.136a1.365,1.365,0,0,1,.254.178.732.732,0,0,1,.178.246.713.713,0,0,1,.085.356" transform="translate(-923.723 -537.859)" fill="#00396b"/>
        <path id="Path_8460" data-name="Path 8460" d="M1011.646,570.19a.431.431,0,0,1-.085.322.426.426,0,0,1-.3.085.419.419,0,0,1-.288-.076.469.469,0,0,1-.076-.314.432.432,0,0,1,.085-.322.426.426,0,0,1,.3-.085.419.419,0,0,1,.288.076.439.439,0,0,1,.076.314" transform="translate(-954.566 -565.773)" fill="#00396b"/>
      </g>
      <g id="Group_10319" data-name="Group 10319" transform="translate(110.147 120.069)">
        <rect id="Rectangle_3573" data-name="Rectangle 3573" width="30.013" height="18.865" rx="2" fill="#19a823"/>
        <text id="EVV" transform="translate(4.288 12.573)" fill="#fff" font-size="10" font-family="ExpresswaySb-Italic, Expressway" font-style="italic"><tspan x="0" y="0">EVV</tspan></text>
      </g>
    </g>
  </g>
</svg>
