<svg xmlns="http://www.w3.org/2000/svg" width="19.47" height="13.972" viewBox="0 0 19.47 13.972">
  <g id="mail" transform="translate(0 0)">
    <path id="Path_8561" data-name="Path 8561" d="M12.229,43.856a2.819,2.819,0,0,1-1.147-.245L2.5,39.8v8.051a1.014,1.014,0,0,0,1.025,1.025H20.94a1.014,1.014,0,0,0,1.018-1.025V39.8l-8.582,3.81a2.819,2.819,0,0,1-1.147.245Z" transform="translate(-2.5 -34.904)" fill="#2558a8"/>
    <path id="Path_8562" data-name="Path 8562" d="M20.94,15.9H3.525A1.014,1.014,0,0,0,2.5,16.925v1.249a1.039,1.039,0,0,0,.614.943l8.7,3.85a1,1,0,0,0,.84,0l8.7-3.871a1.039,1.039,0,0,0,.614-.943V16.9a1.039,1.039,0,0,0-1.03-1Z" transform="translate(-2.5 -15.9)" fill="#2558a8"/>
  </g>
</svg>
