<svg id="message" xmlns="http://www.w3.org/2000/svg" width="16.197" height="11.623" viewBox="0 0 16.197 11.623">
  <g id="mail">
    <path id="Path_8561" data-name="Path 8561" d="M10.594,43.174a2.345,2.345,0,0,1-.954-.2L2.5,39.8v6.7a.844.844,0,0,0,.852.852H17.841a.844.844,0,0,0,.847-.852V39.8l-7.14,3.17a2.345,2.345,0,0,1-.954.2Z" transform="translate(-2.5 -35.727)" fill="#7a9ed8"/>
    <path id="Path_8562" data-name="Path 8562" d="M17.841,15.9H3.352a.844.844,0,0,0-.852.852v1.039a.864.864,0,0,0,.511.784l7.238,3.2a.834.834,0,0,0,.7,0l7.238-3.22a.864.864,0,0,0,.511-.784V16.735a.864.864,0,0,0-.857-.835Z" transform="translate(-2.5 -15.9)" fill="#7a9ed8"/>
  </g>
</svg>
