<svg xmlns="http://www.w3.org/2000/svg" width="25.339" height="21.003" viewBox="0 0 25.339 21.003">
  <g id="_4625919_chat_communication_message_icon" data-name="4625919_chat_communication_message_icon" transform="translate(-2.5 -10.7)">
    <path id="Path_8987" data-name="Path 8987" d="M15.183,10.7c-7,0-12.683,4.058-12.683,9.052,0,2.857,1.842,5.394,4.726,7.049a9.266,9.266,0,0,1-1.949,3.177A1.032,1.032,0,0,0,6.4,31.633c2.083-.774,4.486-1.869,6.7-2.937a17.34,17.34,0,0,0,2.056.134c7,0,12.683-4.058,12.683-9.052C27.866,14.758,22.178,10.7,15.183,10.7ZM8.908,21.46a1.709,1.709,0,1,1,1.709-1.709A1.721,1.721,0,0,1,8.908,21.46Zm6.275,0a1.709,1.709,0,1,1,1.709-1.709A1.721,1.721,0,0,1,15.183,21.46Zm6.275,0a1.709,1.709,0,1,1,1.709-1.709A1.721,1.721,0,0,1,21.457,21.46Z" fill="#2558a8"/>
  </g>
</svg>
