<svg xmlns="http://www.w3.org/2000/svg" width="26.548" height="17.214" viewBox="0 0 26.548 17.214">
  <g id="_1936689_payment_payroll_wages_icon" data-name="1936689_payment_payroll_wages_icon" transform="translate(0 -23)">
    <path id="Path_8712" data-name="Path 8712" d="M58.563,23a4.574,4.574,0,1,0,4.563,4.574A4.568,4.568,0,0,0,58.563,23Zm.215,6.267-.034.566L58.2,29.8l.031-.522a2.3,2.3,0,0,1-.919-.293l.2-.633a1.937,1.937,0,0,0,.9.3c.318.019.539-.094.553-.309s-.155-.351-.559-.514c-.575-.233-.959-.532-.928-1.066a1.009,1.009,0,0,1,.987-.923l.031-.523.538.032-.029.484a1.972,1.972,0,0,1,.791.23l-.2.611a1.71,1.71,0,0,0-.779-.239c-.356-.022-.481.131-.49.284-.011.177.174.309.635.508.641.271.88.588.85,1.09A1.042,1.042,0,0,1,58.778,29.267Z" transform="translate(-42.8)" fill="#2558a8"/>
    <path id="Path_8713" data-name="Path 8713" d="M26.391,67.212c-.357-.691-1.457-.691-1.827-.691a27.987,27.987,0,0,0-6.2,1.173c-.254-.586-.936-1.125-2.588-1.125a10.5,10.5,0,0,0-1.968.208,1.8,1.8,0,0,1-.95-.055,7.075,7.075,0,0,1-2.032-1.12,7.873,7.873,0,0,0-2.217-1.216,8,8,0,0,0-3.85-.289,10.718,10.718,0,0,0-1.629.5,10.842,10.842,0,0,1-1.417.449c-.1.022-.211.052-.332.085a3.08,3.08,0,0,1-.708.142.372.372,0,0,1-.106-.011L0,65.1v5.571a.6.6,0,0,0,.646.562,1.8,1.8,0,0,0,.513-.107,2.009,2.009,0,0,1,.229-.062l.092-.014a14.715,14.715,0,0,1,2.1-.211,69.718,69.718,0,0,1,7.6,1.726l.024.006a5.613,5.613,0,0,0,1.134.122,3.076,3.076,0,0,0,1.257-.216,16.137,16.137,0,0,1,1.725-.591c1.927-.543,9.462-2.913,9.528-2.934,1.041-.3,1.576-.656,1.683-1.125A.73.73,0,0,0,26.391,67.212Zm-8.834,1.581a7.551,7.551,0,0,1-1.2.454c-.407.126-.811.225-1.205.357a2.961,2.961,0,0,1-1.327.178,6.459,6.459,0,0,1-.637-.139c-.2-.052-.405-.093-.606-.139-.409-.091-.817-.158-1.229-.22s-.822-.1-1.243-.113a4.822,4.822,0,0,1-1.258-.187,6.869,6.869,0,0,0,1.256-.02,8.906,8.906,0,0,1,1.278-.009,11.924,11.924,0,0,1,1.268.156c.421.067.845.2,1.227.252a2.65,2.65,0,0,0,1.157-.143c.412-.113.828-.207,1.237-.292a10.341,10.341,0,0,0,1.2-.326c.068-.025.135-.056.205-.078.248-.078.684-.829.684-.829A2.345,2.345,0,0,1,17.557,68.793Z" transform="translate(0 -32.477)" fill="#2558a8"/>
  </g>
</svg>
