<svg xmlns="http://www.w3.org/2000/svg" width="19.028" height="19.028" viewBox="0 0 19.028 19.028">
  <path id="My_visit" data-name="My visit" d="M17.244,19.028H1.784A1.753,1.753,0,0,1,0,17.244V6.541H19.027v10.7a1.753,1.753,0,0,1-1.784,1.784Zm-10.7-8.919a.565.565,0,0,0-.6-.6H4.756a.565.565,0,0,0-.6.6V11.3a.565.565,0,0,0,.6.6H5.945a.565.565,0,0,0,.6-.6Zm0,4.162a.565.565,0,0,0-.6-.6H4.756a.565.565,0,0,0-.6.6V15.46a.565.565,0,0,0,.6.6H5.945a.565.565,0,0,0,.6-.6ZM10.7,10.109a.565.565,0,0,0-.6-.6H8.919a.565.565,0,0,0-.6.6V11.3a.565.565,0,0,0,.6.6h1.189a.565.565,0,0,0,.6-.6Zm0,4.162a.565.565,0,0,0-.6-.6H8.919a.565.565,0,0,0-.6.6V15.46a.565.565,0,0,0,.6.6h1.189a.565.565,0,0,0,.6-.6Zm4.162-4.162a.565.565,0,0,0-.6-.6H13.081a.565.565,0,0,0-.6.6V11.3a.565.565,0,0,0,.6.6h1.194a.565.565,0,0,0,.6-.6Zm0,4.162a.565.565,0,0,0-.6-.6H13.081a.565.565,0,0,0-.6.6V15.46a.565.565,0,0,0,.6.6h1.194a.565.565,0,0,0,.6-.6ZM0,4.163A1.753,1.753,0,0,1,1.784,2.379H4.163V1.189a1.189,1.189,0,1,1,2.379,0V2.378h5.945V1.189a1.189,1.189,0,1,1,2.379,0V2.378h2.379a1.753,1.753,0,0,1,1.784,1.784V5.35H0Z" transform="translate(0 0)" fill="#e5e5e5"/>
</svg>
